# xmcd
# Track frame offsets:
# 150
# 13982
# 27715
# 48119
# 64052
# 82699
# 96583
# 110808
# 126712
# 144891
# 165107
# 181592
# 198198
# 215224
# 231084
#
# Disc length: 3270 seconds
# Revision: 0
# Processed by: cddbd v1.5.1PL0 Copyright (c) Steve Scherf et al.
# Submitted via: VisiTrax 2.9.10.228 - For more info visit www.synapsa.com
#
DISCID=cf0cc40f
DTITLE=Brooks and Dunn - CB90006
DYEAR=1900
DGENRE=Karaoke
TTITLE0=Brand New Man
TTITLE1=My Next Broken Heart
TTITLE2=Neon Moon
TTITLE3=Boot Scootin' Boogie
TTITLE4=Lost And Found
TTITLE5=Hard Workin' Man
TTITLE6=We'll Burn That Bridge
TTITLE7=Heartbroke Out Of My Mind
TTITLE8=She Used To Be Mine
TTITLE9=Best Of My Love, The
TTITLE10=Rock My World Little Country Girl
TTITLE11=That Ain't No Way To Go
TTITLE12=She's Not The Cheatin' Kind
TTITLE13=I'll Never Forgive My Heart
TTITLE14=Little Miss Honky Tonk
EXTD=
EXTT0=
EXTT1=
EXTT2=
EXTT3=
EXTT4=
EXTT5=
EXTT6=
EXTT7=
EXTT8=
EXTT9=
EXTT10=
EXTT11=
EXTT12=
EXTT13=
EXTT14=
PLAYORDER=
